# xmcd
#
# Track frame offsets:
#	150
#	14990
#	27495
#	40223
#	50336
#	63264
#	75357
#	87245
#	102637
#	119199
#	133947
#	145985
#	163089
#	177509
#	192344
#	204888
#	218303
#	231823
#	246531
#	267441
#	282260
#	300422
#	313004
#	329646
#	342552
#
# Disc length: 4775 seconds
#
# Revision: 3
# Processed by: cddbd v1.4PL0 Copyright (c) Steve Scherf et al.
# Submitted via: MusicWizard 6.0.0
#
DISCID=8412a519
DTITLE=Waylon Jennings - Black On Black and Turn The Page
DYEAR=2002
DGENRE=Country
TTITLE0=Women Do Know How To Carry On
TTITLE1=Honky Tonk Blues
TTITLE2=Just To Satisfy You
TTITLE3=We Made It As Lovers  (We Just Couldn't Make It As Friends)
TTITLE4=Shine
TTITLE5=Folsom Prison Blues
TTITLE6=Gonna Write A Letter
TTITLE7=May I Borrow Some Sugar From You
TTITLE8=Song For The Life
TTITLE9=Get Naked With Me
TTITLE10=The Devil's On The Loose
TTITLE11=You Showed Me Something About Lovin'  (I Never Knew Was)
TTITLE12=Good Morning, John  (For Johnny Cash, My Friend For 20 Years)
TTITLE13=The Broken Promise Land
TTITLE14=Don't Bring It Around Anymore
TTITLE15=Rhiannon
TTITLE16=Drinkin' And Dreamin'
TTITLE17=As Far As The Eye Can See
TTITLE18=Turn The Page
TTITLE19=Those Kind Of Memories
TTITLE20=Lucille
TTITLE21=The Entertainer
TTITLE22=America
TTITLE23=Sweet Mental Revenge
TTITLE24=It's Only Rock And Roll
EXTD=(p)1982 RCA Victor "Black on Black", (p)1985 RCA Victor "Turn the Page" YEAR: 2002
EXTT0=(p)1982 RCA Victor 'Black on Black'
EXTT1=(p)1982 RCA Victor 'Black on Black'
EXTT2=(p)1982 RCA Victor 'Black on Black'
EXTT3=(p)1982 RCA Victor 'Black on Black'
EXTT4=(p)1982 RCA Victor 'Black on Black'
EXTT5=(p)1982 RCA Victor 'Black on Black'
EXTT6=(p)1982 RCA Victor 'Black on Black'
EXTT7=(p)1982 RCA Victor 'Black on Black'
EXTT8=(p)1982 RCA Victor 'Black on Black'
EXTT9=(p)1982 RCA Victor 'Black on Black'
EXTT10=(p)1985 RCA Victor 'Turn the Page'
EXTT11=(p)1985 RCA Victor 'Turn the Page'
EXTT12=(p)1985 RCA Victor 'Turn the Page'
EXTT13=(p)1985 RCA Victor 'Turn the Page'
EXTT14=(p)1985 RCA Victor 'Turn the Page'
EXTT15=(p)1985 RCA Victor 'Turn the Page'
EXTT16=(p)1985 RCA Victor 'Turn the Page'
EXTT17=(p)1985 RCA Victor 'Turn the Page'
EXTT18=(p)1985 RCA Victor 'Turn the Page'
EXTT19=(p)1985 RCA Victor 'Turn the Page'
EXTT20=(p)(1977 RCA
EXTT21=(p)(1984 RCA
EXTT22=(p)(1984 RCA
EXTT23=(p)(1967 RCA
EXTT24=(p)(1967 RCA
PLAYORDER=
